<svg width="5" height="2" viewBox="0 0 40 55" fill="none" xmlns="http://www.w3.org/2000/svg">
<path d="M15.0314 19.3972L16.9368 19.7251L15.0289 19.3972H15.0314ZM22.4721 50.4842L24.0134 51.6538L22.4695 50.4842H22.4721ZM34.3637 2.5435L33.3645 4.20099L34.3637 2.54092V2.5435ZM29.3912 6.95831L34.9472 10.3043L36.9454 6.98671L31.3895 3.64075L29.3912 6.95831ZM11.4996 48.344L9.78272 47.3113L7.78443 50.6288L9.50131 51.6615L11.4996 48.344ZM23.3938 40.418L22.7535 43.245L26.5306 44.1021L27.1709 41.2751L23.3938 40.418ZM8.32402 34.4076L10.3507 32.4171L7.63469 29.6546L5.61059 31.6477L8.32402 34.4076ZM23.4144 10.8826L31.2423 7.03577L29.5358 3.56072L21.7079 7.40754L23.4144 10.8826ZM34.0151 8.79911L34.738 17.7966L38.5952 17.4867L37.8749 8.49188L34.0151 8.79911ZM32.084 6.23542L33.1838 4.24746L29.7965 2.37052L28.6941 4.36106L32.084 6.23542ZM33.3645 4.19583L35.3783 5.41184L37.3766 2.09427L35.3628 0.880846L33.3645 4.20099V4.19583ZM35.4248 5.58482L34.2501 7.70703L37.6399 9.58397L38.8146 7.46176L35.4248 5.58482ZM34.7355 17.7966L34.7716 18.2509L38.6365 18.0057L38.5952 17.4867L34.7355 17.7966ZM33.2019 31.0281C33.3774 30.8732 33.4833 30.7828 33.5814 30.6925L30.9738 27.8267L30.6434 28.121L33.2019 31.0281ZM34.7716 18.2484C35.004 21.9119 33.584 25.4489 30.9738 27.8267L33.5814 30.6925C37.0874 27.4962 38.9412 22.8052 38.6365 18.0057L34.7716 18.2509V18.2484ZM16.9368 19.7251L17.0142 19.2785L13.2113 18.5608C13.1855 18.695 13.1597 18.8344 13.1209 19.0694L16.9368 19.7251ZM21.7079 7.40754C21.5013 7.50823 21.3748 7.57019 21.2561 7.63215L23.0246 11.0762L23.4144 10.8826L21.7079 7.40754ZM17.0168 19.2785C17.6932 15.6873 19.929 12.6666 23.0246 11.0762L21.2561 7.63215C17.0581 9.78793 14.0994 13.8387 13.2113 18.5608L17.0168 19.2785ZM10.3507 32.4145L10.6967 32.0711L7.94967 29.3396L7.63469 29.6546L10.3507 32.4145ZM13.1184 19.0668C13.0933 19.2167 13.0675 19.3664 13.0409 19.516L16.849 20.2131C16.8748 20.084 16.8955 19.9549 16.9342 19.7225L13.1209 19.0668H13.1184ZM10.6941 32.0711C13.8957 28.8294 16.0414 24.6946 16.849 20.2105L13.0409 19.516C12.3734 23.2304 10.6002 26.6533 7.94967 29.3396L10.6941 32.0711ZM27.1657 41.2725L27.269 40.831L23.4996 39.9326L23.3912 40.418L27.1683 41.2725H27.1657ZM30.6408 28.1184L30.2768 28.4412L32.8688 31.3172L33.1993 31.0255L30.6434 28.121L30.6408 28.1184ZM27.269 40.831C28.1288 37.1658 30.0816 33.8481 32.8688 31.3172L30.2768 28.4412C26.9066 31.4969 24.5441 35.5069 23.5022 39.9352L27.269 40.831ZM9.78014 47.3113C8.15104 46.3276 7.01765 45.6434 6.17858 45.0522C5.34725 44.4687 4.95999 44.0789 4.73537 43.7458L1.52624 45.9145C2.13554 46.8181 2.96687 47.5281 3.95052 48.22C4.92642 48.9068 6.20181 49.6736 7.78185 50.6262L9.78014 47.3087V47.3113ZM5.60801 31.6425C4.28356 32.9463 3.21471 33.992 2.42211 34.893C1.62177 35.7966 0.976327 36.6847 0.589063 37.7019L4.20611 39.0806C4.35069 38.6985 4.64501 38.2235 5.32401 37.4567C6.0056 36.6821 6.95827 35.7475 8.32144 34.405L5.60801 31.6425ZM4.73537 43.7458C4.282 43.0666 3.99743 42.2888 3.90537 41.4774C3.81331 40.6659 3.91642 39.8442 4.20611 39.0806L0.58648 37.7019C0.0759703 39.046 -0.105113 40.4928 0.0583894 41.9212C0.221892 43.3496 0.725224 44.7206 1.52624 45.9145L4.73537 43.7458ZM9.49873 51.659C11.0788 52.6142 12.3516 53.381 13.4127 53.9206C14.4764 54.4627 15.4962 54.8655 16.5753 54.9662L16.9368 51.1116C16.5753 51.0781 16.0719 50.9309 15.1683 50.4688C14.2621 50.0066 13.1287 49.325 11.497 48.3414L9.49873 51.659ZM22.7509 43.2424C22.3198 45.1452 22.0151 46.4774 21.7156 47.4868C21.4136 48.4911 21.1657 48.9972 20.9256 49.3121L24.0108 51.6512C24.6666 50.7863 25.0771 49.7639 25.4256 48.5944C25.7716 47.4326 26.1072 45.9481 26.528 44.0995L22.7509 43.2424ZM16.5753 54.9662C17.9946 55.0943 19.4231 54.8569 20.7246 54.2767C22.0262 53.6964 23.1575 52.7925 24.0108 51.6512L20.923 49.3121C20.4683 49.9277 19.8634 50.4164 19.1659 50.7315C18.4685 51.0465 17.7018 51.1774 16.9394 51.1116L16.5779 54.9688L16.5753 54.9662ZM35.3783 5.41184L35.7475 5.63387C35.8456 5.69583 35.905 5.73714 35.9411 5.76296C36.016 5.81459 35.9102 5.75521 35.8069 5.58998L39.0702 3.50392C38.84 3.15469 38.5446 2.85314 38.2002 2.61579C37.9523 2.43507 37.6477 2.25434 37.374 2.09169L35.3783 5.41184ZM38.8121 7.4566C38.967 7.17777 39.1374 6.87053 39.2639 6.5917C39.4007 6.29222 39.5504 5.8843 39.5737 5.3886L35.7036 5.21304C35.7139 5.01683 35.7733 4.91356 35.7372 4.99618L35.6313 5.20272L35.4248 5.58482L38.8121 7.4566ZM35.8069 5.58998C35.7352 5.47773 35.6975 5.34607 35.7036 5.21304L39.5737 5.3886C39.6043 4.72348 39.4285 4.06517 39.0702 3.50392L35.8069 5.58998ZM33.1812 4.2423L33.4084 3.83955C33.4704 3.72853 33.5117 3.66399 33.5375 3.62268C33.5943 3.53748 33.5375 3.65108 33.362 3.76726L31.2294 0.53489C30.7905 0.824047 30.5065 1.18808 30.3155 1.47465C30.1373 1.74057 29.9592 2.06846 29.794 2.36794L33.1812 4.2423ZM35.3602 0.878264C35.0685 0.702704 34.7484 0.50649 34.4592 0.364493C34.0679 0.160673 33.6393 0.0385758 33.1993 0.0056284L32.9669 3.87311C32.7604 3.8602 32.652 3.79049 32.7423 3.83696C32.7862 3.85762 32.8534 3.89376 32.9618 3.95831C33.0728 4.02027 33.1967 4.09772 33.362 4.19583L35.3602 0.878264ZM33.362 3.76726C33.2449 3.84352 33.1063 3.88233 32.9669 3.87311L33.1993 0.0056284C32.5027 -0.035558 31.8116 0.150141 31.2294 0.53489L33.362 3.76726Z" fill="#7E6A00"/>
<path d="M14.8482 20.7966L18.5969 18.9222C19.7902 18.325 21.1296 18.0822 22.4565 18.2227C23.7834 18.3632 25.0423 18.881 26.084 19.7148C26.994 20.4429 28.0717 20.9315 29.219 21.1363C30.3662 21.341 31.5464 21.2553 32.652 20.8869L36.7932 19.5057" stroke="#7E6A00" stroke-width="2" stroke-linecap="round"/>
</svg>
