<svg width="5" height="2" viewBox="0 0 62 61" fill="none" xmlns="http://www.w3.org/2000/svg">
<path d="M46.1687 0.000126122L38.0882 2.0308L20.4963 19.6229C14.6539 25.4655 20.644 30.7261 14.4076 36.9624L4.11127 47.2589C3.95493 47.2512 3.79828 47.2525 3.64209 47.2627C2.89302 47.3157 1.92942 47.6266 1.12584 48.4299C0.322629 49.2334 0.0629278 50.1458 0.00992748 50.8947C-0.0428205 51.6437 0.119714 52.3531 0.376766 53.0993C0.891121 54.5912 1.9216 56.1821 3.36977 57.6302C4.81807 59.0784 6.40467 60.1088 7.89688 60.6234C8.64293 60.8805 9.35629 61.0429 10.1052 60.99C10.8543 60.937 11.735 60.6459 12.5385 59.8424C13.3417 59.0391 13.6802 58.1071 13.7331 57.3581C13.7672 56.8764 13.7146 56.4079 13.6031 55.9385L23.4932 46.0481C29.7296 39.8117 34.9903 45.802 40.8328 39.9594L61.1418 19.6504L47.6393 21.1844L48.6211 8.36421L38.9758 11.8699C39.4056 7.48857 41.9126 3.7846 46.1687 0.000126122ZM46.3223 27.6242L48.018 29.3198L39.7722 37.5618C36.5775 40.7566 33.2607 40.7873 30.4499 40.7994C27.6391 40.8118 25.2988 40.7899 22.4368 43.6506L12.6412 53.5566C12.2634 52.8878 11.7951 52.2154 11.2413 51.5611L20.7413 41.9549C24.1156 38.5806 27.6111 38.4221 30.4499 38.4097C33.2886 38.3975 35.4291 38.5179 38.0767 35.8701L46.3224 27.6244L46.3223 27.6242ZM2.81402 49.7707C3.17216 49.7664 3.70191 49.8265 4.23746 50.0113C5.46177 50.4334 6.94086 51.3817 8.27962 52.7206C9.61826 54.0592 10.5666 55.5382 10.9886 56.7625C11.1997 57.3745 11.2145 57.9424 11.1897 58.2926C11.1544 58.4714 11.1602 58.4726 10.9887 58.4976C10.6386 58.5224 10.118 58.4564 9.50595 58.2452C8.2824 57.8234 6.80609 56.8698 5.46783 55.5321C4.12919 54.1932 3.17682 52.7143 2.75471 51.4902C2.54372 50.8779 2.44605 50.3299 2.47078 49.9797C2.47558 49.7841 2.47331 49.7845 2.67193 49.7746C2.71585 49.7715 2.76279 49.7714 2.81402 49.7709V49.7707Z" fill="#860000"/>
</svg>
