<svg width="5" height="2" viewBox="0 0 52 52" fill="none" xmlns="http://www.w3.org/2000/svg">
<path d="M15.6033 37.045C18.2125 30.5608 21.1575 23.1467 32.2917 20.6667C32.2917 20.6667 19.375 20.6667 15.19 32.6275C15.19 32.6275 12.9167 30.3542 12.9167 27.7708C12.9167 25.1875 15.5 19.7108 21.9583 18.4192C23.7925 18.0833 25.8333 17.7475 27.8483 17.4633C32.9375 16.7917 37.82 16.0683 38.75 14.2083C38.75 14.2083 34.875 36.1667 20.6667 36.1667C20.2017 36.1667 19.5558 36.0117 18.9358 35.7792L17.7217 38.75L15.2675 37.8975L15.6033 37.045ZM25.8333 5.16667C37.2258 5.16667 46.5 14.4408 46.5 25.8333C46.5 37.2258 37.2258 46.5 25.8333 46.5C14.4408 46.5 5.16667 37.2258 5.16667 25.8333C5.16667 14.4408 14.4408 5.16667 25.8333 5.16667ZM25.8333 0C11.625 0 0 11.625 0 25.8333C0 40.0417 11.625 51.6667 25.8333 51.6667C40.0417 51.6667 51.6667 40.0417 51.6667 25.8333C51.6667 11.625 40.0417 0 25.8333 0Z" fill="#255804"/>
</svg>
