<svg width="38" height="49" viewBox="0 0 38 49" fill="none" xmlns="http://www.w3.org/2000/svg">
<path d="M7.20919 3.479V8.64706H13.8184L8.22666 3.05529C8.14288 2.97193 8.03623 2.91533 7.92023 2.89267C7.80424 2.87001 7.68412 2.8823 7.57513 2.928C7.46613 2.9737 7.37316 3.05074 7.30801 3.14935C7.24286 3.24796 7.20847 3.36081 7.20919 3.479ZM4.32683 8.64706V3.479C4.32738 2.79132 4.53171 2.11922 4.91403 1.54761C5.29634 0.976 5.83949 0.530512 6.47485 0.267422C7.11022 0.00433116 7.8093 -0.0645596 8.4838 0.0694508C9.1583 0.203461 9.77795 0.534361 10.2645 1.02035L15.8563 6.60923V4.32353C15.8563 3.17686 16.3118 2.07715 17.1226 1.26633C17.9334 0.455514 19.0331 0 20.1798 0H28.8268C29.9735 0 31.0732 0.455514 31.884 1.26633C32.6949 2.07715 33.1504 3.17686 33.1504 4.32353V8.64706H36.0299C36.233 8.64695 36.4339 8.68981 36.6194 8.77283C36.8049 8.85584 36.9707 8.97713 37.1059 9.12873C37.2412 9.28034 37.3429 9.45884 37.4043 9.65251C37.4658 9.84619 37.4855 10.0507 37.4624 10.2525L33.5798 43.8982C33.4173 45.3026 32.7443 46.5982 31.6889 47.5389C30.6335 48.4795 29.2692 48.9995 27.8555 49H9.61884C8.2051 48.9995 6.84084 48.4795 5.78543 47.5389C4.73003 46.5982 4.05706 45.3026 3.89448 43.8982L0.00906817 10.2496C-0.0136859 10.0478 0.00649863 9.84336 0.0682978 9.64983C0.130097 9.4563 0.232114 9.27803 0.367657 9.1267C0.503201 8.97537 0.669207 8.85441 0.854786 8.77175C1.04037 8.68908 1.24132 8.64659 1.44448 8.64706H4.32683ZM30.268 8.64706V4.32353C30.268 3.94131 30.1162 3.57474 29.8459 3.30446C29.5756 3.03419 29.2091 2.88235 28.8268 2.88235H20.1798C19.7976 2.88235 19.431 3.03419 19.1607 3.30446C18.8904 3.57474 18.7386 3.94131 18.7386 4.32353V8.64706H30.268ZM22.4828 19.4559C22.1033 18.7987 21.5575 18.2529 20.9003 17.8735C20.243 17.4941 19.4975 17.2943 18.7386 17.2943C17.9797 17.2943 17.2342 17.4941 16.5769 17.8735C15.9197 18.2529 15.3739 18.7987 14.9944 19.4559L13.6916 21.7099C13.5955 21.8738 13.5327 22.0552 13.507 22.2435C13.4812 22.4318 13.493 22.6234 13.5416 22.8071C13.5902 22.9909 13.6746 23.1632 13.7901 23.3142C13.9055 23.4651 14.0497 23.5918 14.2143 23.6868C14.3789 23.7819 14.5606 23.8434 14.7491 23.8679C14.9376 23.8924 15.1291 23.8794 15.3125 23.8296C15.4959 23.7798 15.6677 23.6942 15.8179 23.5777C15.9681 23.4613 16.0938 23.3163 16.1877 23.1511L17.4905 20.8971C17.617 20.678 17.799 20.4961 18.018 20.3696C18.2371 20.2431 18.4856 20.1765 18.7386 20.1765C18.9916 20.1765 19.2401 20.2431 19.4592 20.3696C19.6782 20.4961 19.8602 20.678 19.9867 20.8971L21.2866 23.1511C21.4777 23.4824 21.7926 23.7243 22.1621 23.8235C22.5316 23.9227 22.9253 23.8711 23.2567 23.68C23.5881 23.4889 23.83 23.1739 23.9292 22.8045C24.0284 22.435 23.9767 22.0413 23.7856 21.7099L22.4828 19.4559ZM24.9789 29.5441C25.1054 29.7632 25.172 30.0117 25.172 30.2647C25.172 30.5177 25.1054 30.7662 24.9789 30.9853C24.8524 31.2044 24.6705 31.3863 24.4514 31.5128C24.2323 31.6393 23.9838 31.7059 23.7308 31.7059H21.621C21.2387 31.7059 20.8722 31.8577 20.6019 32.128C20.3316 32.3983 20.1798 32.7648 20.1798 33.1471C20.1798 33.5293 20.3316 33.8959 20.6019 34.1661C20.8722 34.4364 21.2387 34.5882 21.621 34.5882H23.7308C24.4898 34.5882 25.2353 34.3884 25.8926 34.0089C26.5498 33.6295 27.0956 33.0837 27.475 32.4264C27.8545 31.7692 28.0543 31.0236 28.0543 30.2647C28.0543 29.5057 27.8545 28.7602 27.475 28.1029L27.1666 27.5668C26.9755 27.2354 26.6606 26.9935 26.2911 26.8943C25.9216 26.7952 25.5279 26.8468 25.1965 27.0379C24.8651 27.229 24.6232 27.544 24.524 27.9134C24.4249 28.2829 24.4765 28.6766 24.6676 29.008L24.9789 29.5441ZM15.8563 31.7059H13.7464C13.4934 31.7059 13.2449 31.6393 13.0258 31.5128C12.8067 31.3863 12.6248 31.2044 12.4983 30.9853C12.3718 30.7662 12.3052 30.5177 12.3052 30.2647C12.3052 30.0117 12.3718 29.7632 12.4983 29.5441L12.8067 29.008C12.9948 28.6772 13.0444 28.2854 12.9447 27.9181C12.845 27.5508 12.6041 27.2379 12.2745 27.0476C11.9449 26.8573 11.5534 26.8051 11.1855 26.9024C10.8176 26.9997 10.5031 27.2385 10.3106 27.5668L10.0022 28.1029C9.62273 28.7602 9.42295 29.5057 9.42295 30.2647C9.42294 31.0236 9.62271 31.7692 10.0022 32.4264C10.3816 33.0837 10.9274 33.6295 11.5846 34.0089C12.2419 34.3884 12.9874 34.5882 13.7464 34.5882H15.8563C16.2385 34.5882 16.605 34.4364 16.8753 34.1661C17.1456 33.8959 17.2974 33.5293 17.2974 33.1471C17.2974 32.7648 17.1456 32.3983 16.8753 32.128C16.605 31.8577 16.2385 31.7059 15.8563 31.7059Z" fill="#255804"/>
</svg>
